<mxfile host="app.diagrams.net" modified="2022-10-21T21:07:01.832Z" agent="5.0 (Macintosh; Intel Mac OS X 10_15_7) AppleWebKit/605.1.15 (KHTML, like Gecko) Version/16.0 Safari/605.1.15" etag="4ftPA2tIU8tWXHxFa4of" version="20.4.2" type="github">
  <diagram id="QHVrxJFRXrvULvgmnxff" name="Страница 1">
    <mxGraphModel dx="657" dy="408" grid="1" gridSize="10" guides="1" tooltips="1" connect="1" arrows="1" fold="1" page="1" pageScale="1" pageWidth="827" pageHeight="1169" math="0" shadow="0">
      <root>
        <mxCell id="0" />
        <mxCell id="1" parent="0" />
        <mxCell id="k3diRSCtVvgtM6xp0gNi-18" value="" style="verticalLabelPosition=bottom;shadow=0;dashed=0;align=center;html=1;verticalAlign=top;strokeWidth=1;shape=mxgraph.mockup.misc.map;glass=0;labelBackgroundColor=none;labelBorderColor=none;sketch=1;strokeColor=#333300;fontSize=60;fillColor=#E6E6E6;opacity=30;" vertex="1" parent="1">
          <mxGeometry x="89" y="76" width="185" height="283" as="geometry" />
        </mxCell>
        <mxCell id="k3diRSCtVvgtM6xp0gNi-4" value="" style="verticalLabelPosition=bottom;verticalAlign=top;html=1;shadow=0;dashed=0;strokeWidth=1;shape=mxgraph.android.phone2;strokeColor=#c0c0c0;" vertex="1" parent="1">
          <mxGeometry x="80" y="40" width="200" height="390" as="geometry" />
        </mxCell>
        <mxCell id="k3diRSCtVvgtM6xp0gNi-8" value="" style="rounded=0;whiteSpace=wrap;html=1;strokeWidth=1;strokeColor=#333300;shadow=0;fillColor=none;perimeterSpacing=0;sketch=1;" vertex="1" parent="1">
          <mxGeometry x="89" y="360" width="183" height="34" as="geometry" />
        </mxCell>
        <mxCell id="k3diRSCtVvgtM6xp0gNi-9" value="69" style="text;html=1;strokeColor=none;fillColor=none;align=center;verticalAlign=middle;whiteSpace=wrap;rounded=0;shadow=0;strokeWidth=1;sketch=0;fontSize=60;labelBackgroundColor=none;labelBorderColor=none;fontFamily=Tahoma;" vertex="1" parent="1">
          <mxGeometry x="99" y="90" width="60" height="30" as="geometry" />
        </mxCell>
        <mxCell id="k3diRSCtVvgtM6xp0gNi-10" value="" style="html=1;verticalLabelPosition=bottom;align=center;labelBackgroundColor=#ffffff;verticalAlign=top;strokeWidth=1;strokeColor=#333300;shadow=0;dashed=0;shape=mxgraph.ios7.icons.map;fillColor=none;sketch=1;" vertex="1" parent="1">
          <mxGeometry x="123" y="366" width="20" height="22" as="geometry" />
        </mxCell>
        <mxCell id="k3diRSCtVvgtM6xp0gNi-11" value="" style="shape=image;html=1;verticalAlign=top;verticalLabelPosition=bottom;labelBackgroundColor=#ffffff;imageAspect=0;aspect=fixed;image=https://cdn4.iconfinder.com/data/icons/evil-icons-user-interface/64/setting-128.png;shadow=0;strokeColor=#CCCCCC;strokeWidth=1;" vertex="1" parent="1">
          <mxGeometry x="225" y="362" width="32" height="32" as="geometry" />
        </mxCell>
        <mxCell id="k3diRSCtVvgtM6xp0gNi-13" value="" style="shape=image;html=1;verticalAlign=top;verticalLabelPosition=bottom;labelBackgroundColor=#ffffff;imageAspect=0;aspect=fixed;image=https://cdn4.iconfinder.com/data/icons/essential-app-2/16/location-service-place-gps-128.png;shadow=0;labelBorderColor=none;sketch=0;strokeColor=#333300;strokeWidth=1;fontSize=60;fillColor=none;fontColor=default;imageBackground=none;imageBorder=none;" vertex="1" parent="1">
          <mxGeometry x="247" y="88" width="20" height="20" as="geometry" />
        </mxCell>
        <mxCell id="k3diRSCtVvgtM6xp0gNi-17" value="" style="rounded=1;whiteSpace=wrap;html=1;shadow=0;labelBackgroundColor=none;labelBorderColor=none;sketch=1;strokeColor=#333300;strokeWidth=1;fontSize=60;fillColor=#B3B3B3;rotation=90;glass=0;" vertex="1" parent="1">
          <mxGeometry x="197" y="213" width="120" height="20" as="geometry" />
        </mxCell>
        <mxCell id="k3diRSCtVvgtM6xp0gNi-20" value="" style="group" vertex="1" connectable="0" parent="1">
          <mxGeometry x="94" y="295" width="56" height="54" as="geometry" />
        </mxCell>
        <mxCell id="k3diRSCtVvgtM6xp0gNi-12" value="" style="ellipse;whiteSpace=wrap;html=1;aspect=fixed;shadow=0;sketch=1;strokeColor=#333300;strokeWidth=1;fillColor=default;opacity=60;" vertex="1" parent="k3diRSCtVvgtM6xp0gNi-20">
          <mxGeometry width="54" height="54" as="geometry" />
        </mxCell>
        <mxCell id="k3diRSCtVvgtM6xp0gNi-15" value="" style="shape=image;html=1;verticalAlign=top;verticalLabelPosition=bottom;labelBackgroundColor=#ffffff;imageAspect=0;aspect=fixed;image=https://cdn4.iconfinder.com/data/icons/48-bubbles/48/38.Location-Pin-128.png;shadow=0;labelBorderColor=none;sketch=1;strokeColor=#333300;strokeWidth=1;fontSize=60;fillColor=none;" vertex="1" parent="k3diRSCtVvgtM6xp0gNi-20">
          <mxGeometry x="8.8" y="8.485714285714286" width="37.02857142857143" height="37.02857142857143" as="geometry" />
        </mxCell>
        <mxCell id="k3diRSCtVvgtM6xp0gNi-21" value="" style="shape=image;html=1;verticalAlign=top;verticalLabelPosition=bottom;labelBackgroundColor=#ffffff;imageAspect=0;aspect=fixed;image=https://cdn4.iconfinder.com/data/icons/evil-icons-user-interface/64/location-128.png;shadow=0;glass=0;labelBorderColor=none;sketch=1;strokeColor=#333300;strokeWidth=1;fontFamily=Tahoma;fontSize=60;fontColor=default;fillColor=#B3B3B3;opacity=60;imageBorder=none;" vertex="1" parent="1">
          <mxGeometry x="440" y="230" width="128" height="128" as="geometry" />
        </mxCell>
        <mxCell id="k3diRSCtVvgtM6xp0gNi-22" value="" style="shape=image;html=1;verticalAlign=top;verticalLabelPosition=bottom;labelBackgroundColor=#ffffff;imageAspect=0;aspect=fixed;image=https://cdn4.iconfinder.com/data/icons/48-bubbles/48/38.Location-Pin-128.png;shadow=0;glass=0;labelBorderColor=none;sketch=1;strokeColor=#333300;strokeWidth=1;fontFamily=Tahoma;fontSize=60;fontColor=default;fillColor=#B3B3B3;opacity=60;" vertex="1" parent="1">
          <mxGeometry x="400" y="140" width="128" height="128" as="geometry" />
        </mxCell>
        <mxCell id="k3diRSCtVvgtM6xp0gNi-23" value="" style="shape=image;html=1;verticalAlign=top;verticalLabelPosition=bottom;labelBackgroundColor=#ffffff;imageAspect=0;aspect=fixed;image=https://cdn4.iconfinder.com/data/icons/thin-line-icons-for-seo-and-development-1/64/seo_place_optimization-128.png;shadow=0;glass=0;labelBorderColor=none;sketch=1;strokeColor=#333300;strokeWidth=1;fontFamily=Tahoma;fontSize=60;fontColor=default;fillColor=#B3B3B3;opacity=60;" vertex="1" parent="1">
          <mxGeometry x="330" y="140" width="30" height="30" as="geometry" />
        </mxCell>
        <mxCell id="k3diRSCtVvgtM6xp0gNi-24" value="" style="shape=image;html=1;verticalAlign=top;verticalLabelPosition=bottom;labelBackgroundColor=#ffffff;imageAspect=0;aspect=fixed;image=https://cdn4.iconfinder.com/data/icons/essentials-72/24/025_-_Location-128.png;shadow=0;glass=0;labelBorderColor=none;sketch=1;strokeColor=#333300;strokeWidth=1;fontFamily=Tahoma;fontSize=60;fontColor=default;fillColor=#B3B3B3;opacity=60;" vertex="1" parent="1">
          <mxGeometry x="131" y="230" width="28" height="28" as="geometry" />
        </mxCell>
        <mxCell id="k3diRSCtVvgtM6xp0gNi-25" value="" style="curved=1;endArrow=none;html=1;rounded=0;fontFamily=Tahoma;fontSize=60;fontColor=default;opacity=25;strokeWidth=3;endFill=0;strokeColor=#3333FF;" edge="1" parent="1">
          <mxGeometry width="50" height="50" relative="1" as="geometry">
            <mxPoint x="208" y="329" as="sourcePoint" />
            <mxPoint x="195" y="78" as="targetPoint" />
            <Array as="points">
              <mxPoint x="206" y="312" />
              <mxPoint x="199" y="295" />
              <mxPoint x="190" y="260" />
              <mxPoint x="186" y="242" />
              <mxPoint x="177" y="198" />
              <mxPoint x="166" y="160" />
              <mxPoint x="166" y="148" />
              <mxPoint x="195" y="110" />
            </Array>
          </mxGeometry>
        </mxCell>
        <mxCell id="k3diRSCtVvgtM6xp0gNi-26" value="" style="shape=image;html=1;verticalAlign=top;verticalLabelPosition=bottom;labelBackgroundColor=#ffffff;imageAspect=0;aspect=fixed;image=https://cdn4.iconfinder.com/data/icons/essential-app-2/16/location-service-place-gps-128.png;shadow=0;labelBorderColor=none;sketch=0;strokeColor=#333300;strokeWidth=1;fontSize=60;fillColor=none;fontColor=default;imageBackground=none;imageBorder=none;rotation=45;" vertex="1" parent="1">
          <mxGeometry x="200" y="331" width="15" height="15" as="geometry" />
        </mxCell>
      </root>
    </mxGraphModel>
  </diagram>
</mxfile>
